<svg width="190" height="62" viewBox="0 0 190 62" fill="none" xmlns="http://www.w3.org/2000/svg">
<path d="M27.2205 59.8658C26.1662 60.434 25.1477 60.8192 24.1651 61.0192C23.1824 61.2181 22.1634 61.3181 21.1096 61.3181C18.7741 61.3181 16.8508 60.9046 15.3415 60.0789C13.8316 59.2524 12.641 58.1495 11.772 56.767C10.903 55.3849 10.3047 53.7973 9.97742 52.0036C9.64971 50.2076 9.48609 48.3423 9.48609 46.4048V20.7233H1.70927C1.1392 20.7233 0.711999 20.5819 0.427671 20.2966C0.1424 20.0118 0 19.7053 0 19.3785C0 19.0499 0.1424 18.7434 0.427671 18.4586C0.711999 18.1747 1.1392 18.0323 1.70927 18.0323H9.48609V7.30708C9.48609 6.85112 9.63603 6.50974 9.93451 6.28105C10.2335 6.05331 10.5546 5.94627 10.8959 5.96136C11.2383 5.97551 11.5584 6.09621 11.8578 6.32443C12.1568 6.55123 12.3063 6.87988 12.3063 7.30708V18.0328V20.7238V46.4053C12.3063 47.9151 12.3992 49.3961 12.584 50.8498C12.7693 52.3021 13.1682 53.6054 13.7812 54.7597C14.3937 55.913 15.2839 56.8457 16.4524 57.5586C17.6199 58.2711 19.1726 58.6262 21.1096 58.6262C21.9074 58.6262 22.7976 58.4984 23.7798 58.2414C24.7629 57.9863 25.5532 57.686 26.1521 57.3451C26.5797 57.1461 26.9852 57.1102 27.3695 57.2385C27.7543 57.3663 28.032 57.5803 28.2027 57.8788C28.3739 58.1787 28.3951 58.5135 28.2678 58.8827C28.139 59.2528 27.7896 59.5801 27.2205 59.8658ZM15.2556 20.7233H23.9727C24.5135 20.7233 24.92 20.5819 25.1901 20.2966C25.4613 20.0118 25.5966 19.7053 25.5966 19.3785C25.5966 19.0499 25.4613 18.7434 25.1901 18.4586C24.92 18.1747 24.5135 18.0323 23.9727 18.0323H15.2556V20.7233Z" fill="#5B5B5B"/>
<path d="M95.6318 4.65676C95.2329 4.31537 94.7694 4.0301 94.2432 3.80236C93.7156 3.57461 93.1455 3.39685 92.5339 3.26812C91.9209 3.14034 91.3014 3.04792 90.6747 2.9904C90.0481 2.93334 89.4643 2.90505 88.923 2.90505C86.9577 2.90505 85.3475 3.19692 84.0941 3.78444C82.8408 4.36913 81.8582 5.18392 81.1457 6.22787C80.4333 7.2704 79.9424 8.50815 79.6717 9.93781C79.4016 11.3656 79.2658 12.9235 79.2658 14.6101V15.1689V17.7755V59.4802C79.2658 60.0786 79.1003 60.5345 78.7674 60.8476C78.4359 61.1612 78.0601 61.3173 77.6418 61.3173C77.2236 61.3173 76.8483 61.1682 76.5163 60.8684C76.1839 60.5694 76.0184 60.1069 76.0184 59.4802V17.7759H68.6688C68.1558 17.7759 67.7785 17.6425 67.5362 17.3775C67.2943 17.1097 67.1797 16.8074 67.1943 16.4726C67.2089 16.1341 67.3443 15.8356 67.6003 15.5687C67.8568 15.3004 68.2411 15.1694 68.7541 15.1694H76.0184V14.6106C76.0184 12.641 76.2268 10.7757 76.645 9.01975C77.0647 7.26192 77.7772 5.71155 78.7815 4.3696C79.7877 3.0267 81.1028 1.96201 82.7267 1.17881C84.3502 0.391364 86.3876 0 88.8372 0C90.5469 0 92.1063 0.192381 93.5161 0.577143C94.9264 0.961434 96.2156 1.59516 97.3831 2.47879C97.8103 2.76312 98.0451 3.10497 98.0889 3.50388C98.1314 3.90279 98.0451 4.24465 97.832 4.52944C97.6188 4.81424 97.3053 4.99201 96.8917 5.06368C96.4792 5.13441 96.0595 4.99955 95.6318 4.65676ZM82.4702 15.1689H90.7176C91.2302 15.1689 91.622 15.3 91.8922 15.5683C92.1633 15.8351 92.2986 16.1336 92.2986 16.4722C92.2986 16.8069 92.1633 17.1092 91.8922 17.377C91.622 17.642 91.2302 17.7755 90.7176 17.7755H82.4702V15.1689Z" fill="#5B5B5B"/>
<path d="M101.059 18.9293C101.059 18.4167 101.214 18.039 101.522 17.7971C101.831 17.5548 102.161 17.4275 102.511 17.4124C102.863 17.3978 103.191 17.5119 103.502 17.7542C103.809 17.9961 103.964 18.3597 103.964 18.8434V59.7796C103.964 60.2931 103.809 60.6694 103.502 60.9122C103.191 61.1541 102.863 61.2753 102.511 61.2753C102.161 61.2753 101.831 61.1541 101.522 60.9122C101.214 60.6689 101.059 60.2931 101.059 59.7796V18.9293Z" fill="#5B5B5B"/>
<path fill-rule="evenodd" clip-rule="evenodd" d="M72.1924 33.1898C72.0732 33.8792 71.9807 34.5756 71.8303 35.2589C71.2664 37.8225 69.9791 39.984 68.1307 41.8267C61.8571 48.08 55.5817 54.331 49.3085 60.5857C48.969 60.9243 48.6107 61.202 48.0562 61.1662C48.0562 60.1152 48.0524 59.0849 48.0623 58.0541C48.0632 57.9655 48.1354 57.8603 48.2037 57.7924C54.2024 51.8168 60.2096 45.8511 66.2027 39.8708C69.5812 36.4999 70.428 31.7866 68.3033 27.5259C66.6912 24.2922 64.0115 22.3561 60.4181 21.8299C56.8845 21.3122 53.8469 22.4052 51.3073 24.9014C50.6156 25.5818 49.9385 26.2768 49.2467 26.9577C48.531 27.6626 47.7987 27.6513 47.0645 26.9558C45.8961 25.8487 44.8036 24.6397 43.53 23.6684C39.4575 20.5629 33.297 21.1698 29.7979 24.9179C28.2701 26.555 27.2978 28.4529 26.9857 30.679C26.964 30.8331 26.9315 30.9859 26.9018 31.1401C26.8994 31.1524 26.8834 31.1623 26.8546 31.1953H24.1353C24.6413 26.4433 26.9187 22.8701 31.0422 20.5431C33.9034 18.9286 37.0037 18.5457 40.2185 19.2153C43.4442 19.8872 45.972 21.7115 48.1302 24.163C48.7719 23.5467 49.3561 22.9649 49.9625 22.408C54.9828 17.7974 62.7917 17.7913 67.8238 22.3929C70.304 24.6609 71.7275 27.4698 72.1095 30.8086C72.125 30.9458 72.1642 31.0807 72.1924 31.217V33.1898Z" fill="#F26B26"/>
<path d="M143.172 44.4888C143.03 42.8946 142.682 41.3574 142.128 39.8735C141.574 38.3925 140.832 37.0364 139.904 35.8057C138.977 34.576 137.871 33.5023 136.592 32.5828C135.31 31.6667 133.874 30.9858 132.28 30.543C130.925 30.1993 129.555 30.0409 128.173 30.0229V32.1203C129.376 32.1651 130.526 32.3056 131.616 32.5692C133.148 32.9733 134.51 33.6282 135.699 34.5364C136.89 35.4422 137.892 36.5064 138.709 37.7272C139.525 38.9484 140.141 40.2828 140.554 41.7351C140.969 43.1879 141.159 44.6543 141.129 46.1363C141.099 47.6173 140.832 49.0809 140.328 50.5238C139.825 51.9662 139.068 53.2916 138.058 54.5006C136.85 55.9539 135.346 57.077 133.552 57.8744C131.756 58.6703 129.85 59.0706 127.834 59.0706C125.818 59.0706 123.926 58.6703 122.163 57.8744C120.398 57.077 118.901 55.9539 117.671 54.5006C116.906 53.5731 116.284 52.5806 115.81 51.5206C115.337 50.463 114.998 49.3676 114.797 48.2397C114.619 47.2349 114.569 46.2221 114.612 45.2003H112.458C112.377 49.3101 113.561 52.8475 116.038 55.8025C117.49 57.5372 119.229 58.8481 121.254 59.7345C123.283 60.6224 125.476 61.0656 127.834 61.0656C130.174 61.0656 132.358 60.6224 134.386 59.7345C136.41 58.8481 138.15 57.5372 139.603 55.8025C142.222 52.6749 143.414 48.9046 143.172 44.4888Z" fill="#5B5B5B"/>
<path d="M143.172 44.4888C143.03 42.8946 142.682 41.3574 142.128 39.8735C141.574 38.3925 140.832 37.0364 139.904 35.8057C138.977 34.576 137.871 33.5023 136.592 32.5828C135.31 31.6667 133.874 30.9858 132.28 30.543C130.925 30.1993 129.555 30.0409 128.173 30.0229V32.1203C129.376 32.1651 130.526 32.3056 131.616 32.5692C133.148 32.9733 134.51 33.6282 135.699 34.5364C136.89 35.4422 137.892 36.5064 138.709 37.7272C139.525 38.9484 140.141 40.2828 140.554 41.7351C140.969 43.1879 141.159 44.6543 141.129 46.1363C141.099 47.6173 140.832 49.0809 140.328 50.5238C139.825 51.9662 139.068 53.2916 138.058 54.5006C136.85 55.9539 135.346 57.077 133.552 57.8744C131.756 58.6703 129.85 59.0706 127.834 59.0706C125.818 59.0706 123.926 58.6703 122.163 57.8744C120.398 57.077 118.901 55.9539 117.671 54.5006C116.906 53.5731 116.284 52.5806 115.81 51.5206C115.337 50.463 114.998 49.3676 114.797 48.2397C114.619 47.2349 114.569 46.2221 114.612 45.2003H112.458C112.377 49.3101 113.561 52.8475 116.038 55.8025C117.49 57.5372 119.229 58.8481 121.254 59.7345C123.283 60.6224 125.476 61.0656 127.834 61.0656C130.174 61.0656 132.358 60.6224 134.386 59.7345C136.41 58.8481 138.15 57.5372 139.603 55.8025C142.222 52.6749 143.414 48.9046 143.172 44.4888Z" stroke="#5B5B5B" stroke-width="0.5" stroke-miterlimit="10"/>
<path d="M117.209 26.5238C117.314 27.7149 117.574 28.8654 117.989 29.973C118.402 31.0806 118.958 32.0977 119.651 33.0157C120.346 33.9371 121.171 34.7377 122.126 35.4243C123.084 36.1094 124.161 36.6186 125.351 36.9525C126.363 37.2076 127.388 37.3254 128.422 37.3405V35.7708C127.524 35.7407 126.663 35.6322 125.847 35.4351C124.701 35.1357 123.685 34.6425 122.794 33.9649C121.906 33.2878 121.154 32.4904 120.543 31.579C119.935 30.6666 119.476 29.6684 119.166 28.582C118.856 27.4961 118.712 26.3988 118.735 25.2903C118.758 24.1827 118.958 23.0911 119.333 22.0109C119.712 20.9348 120.279 19.9418 121.032 19.0389C121.935 17.9529 123.058 17.1103 124.402 16.5162C125.744 15.9211 127.169 15.6203 128.677 15.6203C130.183 15.6203 131.598 15.9211 132.918 16.5162C134.237 17.1103 135.355 17.9529 136.276 19.0389C136.85 19.7315 137.314 20.4732 137.668 21.264C138.023 22.0571 138.274 22.8737 138.425 23.7211C138.558 24.4713 138.597 25.229 138.562 25.9896H140.172C140.234 22.9204 139.349 20.2733 137.499 18.0652C136.411 16.7675 135.111 15.7877 133.596 15.1238C132.078 14.4608 130.441 14.1284 128.677 14.1284C126.926 14.1284 125.295 14.4608 123.779 15.1238C122.265 15.7877 120.963 16.7675 119.878 18.0652C117.917 20.4025 117.027 23.2217 117.209 26.5238Z" fill="#5B5B5B"/>
<path d="M117.209 26.5238C117.314 27.7149 117.574 28.8654 117.989 29.973C118.402 31.0806 118.958 32.0977 119.651 33.0157C120.346 33.9371 121.171 34.7377 122.126 35.4243C123.084 36.1094 124.161 36.6186 125.351 36.9525C126.363 37.2076 127.388 37.3254 128.422 37.3405V35.7708C127.524 35.7407 126.663 35.6322 125.847 35.4351C124.701 35.1357 123.685 34.6425 122.794 33.9649C121.906 33.2878 121.154 32.4904 120.543 31.579C119.935 30.6666 119.476 29.6684 119.166 28.582C118.856 27.4961 118.712 26.3988 118.735 25.2903C118.758 24.1827 118.958 23.0911 119.333 22.0109C119.712 20.9348 120.279 19.9418 121.032 19.0389C121.935 17.9529 123.058 17.1103 124.402 16.5162C125.744 15.9211 127.169 15.6203 128.677 15.6203C130.183 15.6203 131.598 15.9211 132.918 16.5162C134.237 17.1103 135.355 17.9529 136.276 19.0389C136.85 19.7315 137.314 20.4732 137.668 21.264C138.023 22.0571 138.274 22.8737 138.425 23.7211C138.558 24.4713 138.597 25.229 138.562 25.9896H140.172C140.234 22.9204 139.349 20.2733 137.499 18.0652C136.411 16.7675 135.111 15.7877 133.596 15.1238C132.078 14.4608 130.441 14.1284 128.677 14.1284C126.926 14.1284 125.295 14.4608 123.779 15.1238C122.265 15.7877 120.963 16.7675 119.878 18.0652C117.917 20.4025 117.027 23.2217 117.209 26.5238Z" stroke="#5B5B5B" stroke-miterlimit="10"/>
<path fill-rule="evenodd" clip-rule="evenodd" d="M99.1744 10.8408V10.5933C99.1848 10.5207 99.1946 10.4476 99.2083 10.3754C99.3592 9.57102 100.046 8.96888 100.867 8.92173C101.421 8.8892 101.889 9.07828 102.275 9.47294C102.362 9.56206 102.435 9.66485 102.516 9.76387C102.551 9.71483 102.587 9.66343 102.625 9.61392C103.118 8.96794 104.021 8.72888 104.756 9.06177C105.358 9.33337 105.725 9.79829 105.825 10.4546C105.913 11.0294 105.754 11.5425 105.348 11.956C104.475 12.8439 103.589 13.7181 102.707 14.5974C102.689 14.6158 102.67 14.6342 102.649 14.6498C102.58 14.6993 102.504 14.713 102.428 14.6781C102.383 14.6578 102.343 14.6239 102.309 14.5894C101.431 13.7133 100.551 12.8377 99.6756 11.9588C99.4743 11.7575 99.3333 11.5156 99.2555 11.2411C99.2187 11.1105 99.2003 10.9747 99.1744 10.8408Z" fill="#F26B26"/>
<path d="M171.07 19.8077C172.354 19.8643 173.599 20.0218 174.81 20.2774C176.021 20.5339 177.238 20.9323 178.463 21.4741C181.226 22.8128 183.314 24.6724 184.723 27.0503C186.133 29.4287 186.923 32.1428 187.094 35.1902V42.4121V58.6503C187.094 59.6467 187.565 60.146 188.505 60.146C188.96 60.146 189.324 60.0173 189.594 59.7608C189.865 59.5047 190 59.1346 190 58.6508V18.9095C190 18.4257 189.865 18.0556 189.594 17.7986C189.324 17.543 188.96 17.4143 188.505 17.4143C187.565 17.4143 187.094 17.9127 187.094 18.9095V27.2851C185.841 24.0095 183.818 21.4312 181.027 19.5512C179.517 18.6676 177.929 18.0202 176.263 17.6062C174.597 17.1936 172.866 16.9593 171.07 16.9013C169.903 16.8735 168.785 16.9164 167.717 17.0295C167.156 17.0904 166.599 17.1799 166.041 17.2955V20.3948C167.704 19.9506 169.379 19.7502 171.07 19.8077Z" fill="#5B5B5B"/>
<path d="M167.382 60.5366C169.038 60.8139 170.689 60.8931 172.332 60.7431C172.822 60.6983 173.297 60.6111 173.775 60.5366H167.382Z" fill="#5B5B5B"/>
<path d="M181.027 58.0081C182.195 57.2395 183.236 56.3276 184.147 55.2747V51.3851C183.433 52.3536 182.607 53.2372 181.667 54.0346C180.727 54.8324 179.66 55.517 178.463 56.0857C177.095 56.7124 175.714 57.1895 174.318 57.5182C172.922 57.8445 171.498 57.9798 170.044 57.9237C168.165 57.7808 166.356 57.4031 164.618 56.7911C162.88 56.1781 161.285 55.3162 159.832 54.2053C157.127 52.04 155.196 49.5339 154.043 46.685C152.889 43.8374 152.382 40.8032 152.526 37.5836C152.554 36.1874 152.753 34.7493 153.124 33.2678L153.242 33.1499H150.189C150.081 33.6389 149.99 34.133 149.919 34.6357C149.777 35.632 149.677 36.6434 149.62 37.6694C149.564 40.0898 149.799 42.4059 150.324 44.6131C150.85 46.8212 151.664 48.8582 152.761 50.7245C153.857 52.5894 155.246 54.2496 156.926 55.7019C158.607 57.1551 160.573 58.3372 162.823 59.2482C164.347 59.8612 165.867 60.2832 167.381 60.5369H173.775C176.366 60.1309 178.791 59.3067 181.027 58.0081Z" fill="#5B5B5B"/>
</svg>
