<svg width="480" height="480" viewBox="0 0 480 480" fill="none" xmlns="http://www.w3.org/2000/svg">
<g clip-path="url(#clip0)">
<path d="M372.052 480H107.948C84.488 480 66.042 459.848 68.103 436.484L92.456 160.484C94.291 139.685 111.42 124 132.301 124H157V83C157 37.233 194.233 0 240 0C285.767 0 323 37.233 323 83V124H347.699C352.117 124 355.699 127.582 355.699 132C355.699 136.418 352.117 140 347.699 140H323V176C323 180.418 319.418 184 315 184C310.582 184 307 180.418 307 176V140H202C197.582 140 194 136.418 194 132C194 127.582 197.582 124 202 124H307V83C307 46.056 276.944 16 240 16C203.056 16 173 46.056 173 83V176C173 180.418 169.418 184 165 184C160.582 184 157 180.418 157 176V140H132.301C119.773 140 109.495 149.411 108.394 161.891L84.041 437.891C82.8 451.953 93.848 464 107.948 464H372.052C386.169 464 397.199 451.936 395.959 437.891L371.606 161.891C371.218 157.49 374.471 153.607 378.872 153.219C383.271 152.834 387.156 156.084 387.544 160.485L411.897 436.485C413.959 459.854 395.507 480 372.052 480V480ZM194 411H136C131.582 411 128 414.582 128 419C128 423.418 131.582 427 136 427H194C198.418 427 202 423.418 202 419C202 414.582 198.418 411 194 411ZM194 371H136C131.582 371 128 374.582 128 379C128 383.418 131.582 387 136 387H194C198.418 387 202 383.418 202 379C202 374.582 198.418 371 194 371Z" fill="#424242"/>
</g>
<defs>
<clipPath id="clip0">
<rect width="480" height="480" fill="white"/>
</clipPath>
</defs>
</svg>
